<?xml version="1.0" standalone="no"?>
<!DOCTYPE svg PUBLIC "-//W3C//DTD SVG 20010904//EN"
 "http://www.w3.org/TR/2001/REC-SVG-20010904/DTD/svg10.dtd">
<svg version="1.0" xmlns="http://www.w3.org/2000/svg"
 width="800.000000pt" height="309.000000pt" viewBox="0 0 800.000000 309.000000"
 preserveAspectRatio="xMidYMid meet">

<g transform="translate(0.000000,309.000000) scale(0.100000,-0.100000)"
fill="#fbfbff" stroke="none">
<path d="M1435 3084 c-405 -42 -712 -178 -974 -428 -448 -430 -583 -1123 -335
-1725 163 -396 505 -719 904 -854 183 -63 245 -71 510 -71 218 0 257 2 350 22
207 46 405 130 565 244 109 77 288 252 374 368 35 47 66 86 70 87 3 2 26 -30
51 -69 220 -357 492 -580 766 -628 102 -18 308 -8 404 20 246 70 418 223 693
613 27 37 50 67 53 67 2 0 47 -65 99 -144 167 -251 294 -377 475 -470 133 -69
204 -87 361 -93 388 -15 626 133 951 594 44 62 81 113 83 113 2 0 49 -67 104
-148 212 -314 379 -459 596 -518 61 -16 465 -34 465 -20 0 12 -1502 2441
-1558 2519 -30 42 -99 120 -153 172 -196 191 -400 289 -639 311 -79 7 -333 -9
-458 -29 l-72 -12 37 -42 c28 -31 48 -43 78 -48 98 -17 222 -102 312 -216 74
-95 157 -235 147 -251 -10 -17 -575 -820 -584 -831 -4 -4 -144 201 -311 455
-167 255 -329 494 -360 533 -132 163 -305 302 -456 365 -148 62 -211 73 -398
73 -149 0 -409 -24 -424 -38 -2 -3 9 -22 25 -42 23 -28 42 -39 81 -48 95 -22
163 -63 253 -155 90 -91 216 -279 206 -306 -3 -8 -100 -148 -214 -312 -115
-163 -260 -369 -322 -457 -61 -88 -115 -164 -120 -168 -4 -5 -29 5 -55 22 -56
36 -203 86 -295 101 -110 18 -347 23 -494 11 -135 -11 -395 -54 -422 -69 -11
-6 -8 -16 12 -44 25 -34 30 -37 97 -43 192 -18 364 -84 530 -203 75 -54 243
-218 265 -258 9 -16 0 -35 -56 -114 -249 -353 -571 -524 -954 -507 -240 11
-408 83 -576 249 -222 220 -348 553 -359 953 -7 245 23 403 113 591 107 225
279 383 493 453 276 90 672 8 876 -182 39 -36 81 -83 95 -106 23 -39 27 -41
60 -36 38 6 185 21 292 31 l68 6 -22 41 c-78 154 -257 349 -413 452 -149 98
-318 165 -505 200 -85 16 -309 27 -385 19z m2548 -1001 c35 -54 206 -315 381
-581 174 -266 316 -487 314 -492 -2 -6 -79 -120 -173 -256 l-170 -245 -75 5
c-97 7 -177 28 -269 72 -179 84 -312 217 -534 534 -36 52 -85 118 -107 146
l-41 52 303 431 c167 237 304 431 305 431 2 0 31 -44 66 -97z m2015 -70 c60
-93 232 -354 380 -581 l271 -413 -29 -49 c-47 -80 -147 -226 -237 -347 l-83
-113 -68 0 c-178 0 -351 43 -447 112 -53 37 -78 72 -274 367 -118 179 -215
333 -215 341 0 12 582 850 590 850 1 0 51 -75 112 -167z"/>
</g>
</svg>
